HIERARCHY
ROOT Pelvis
{
	OFFSET 0.000000 0.941512 0.000000
	CHANNELS 6 Xposition Yposition Zposition Zrotation Yrotation Xrotation 
	JOINT Pelvis_L_Hip
	{
		OFFSET 0.000000 0.000000 0.000000
		CHANNELS 3 Zrotation Yrotation Xrotation
		JOINT L_Hip
		{
			OFFSET 0.062321 -0.080322 -0.016990
			CHANNELS 3 Zrotation Yrotation Xrotation
			JOINT L_Knee
			{
				OFFSET 0.093051 -0.381305 -0.029784
				CHANNELS 3 Zrotation Yrotation Xrotation
				JOINT L_Ankle
				{
					OFFSET -0.010371 -0.431000 -0.033614
					CHANNELS 3 Zrotation Yrotation Xrotation
					End Site #name: L_Foot
					{
						OFFSET 0.069299 -0.038670 0.119418
					}
				}
			}
		}
	}
	JOINT Pelvis_R_Hip
	{
		OFFSET 0.000000 0.000000 0.000000
		CHANNELS 3 Zrotation Yrotation Xrotation
		JOINT R_Hip
		{
			OFFSET -0.055334 -0.094904 -0.002373
			CHANNELS 3 Zrotation Yrotation Xrotation
			JOINT R_Knee
			{
				OFFSET -0.064207 -0.384370 -0.019592
				CHANNELS 3 Zrotation Yrotation Xrotation
				JOINT R_Ankle
				{
					OFFSET 0.025418 -0.419734 -0.065953
					CHANNELS 3 Zrotation Yrotation Xrotation
					End Site #name: R_Foot
					{
						OFFSET -0.057233 -0.039888 0.132134
					}
				}
			}
		}
	}
	JOINT Pelvis_Spine1
	{
		OFFSET 0.000000 0.000000 0.000000
		CHANNELS 3 Zrotation Yrotation Xrotation
		JOINT Spine1
		{
			OFFSET -0.005562 0.124093 -0.043360
			CHANNELS 3 Zrotation Yrotation Xrotation
			JOINT Spine2
			{
				OFFSET 0.012244 0.139499 0.029894
				CHANNELS 3 Zrotation Yrotation Xrotation
				JOINT Spine3
				{
					OFFSET -0.002556 0.056561 0.009225
					CHANNELS 3 Zrotation Yrotation Xrotation
					JOINT Spine3_Neck
					{
						OFFSET 0.000000 0.000000 0.000000
						CHANNELS 3 Zrotation Yrotation Xrotation
						JOINT Neck
						{
							OFFSET -0.005205 0.217920 -0.024551
							CHANNELS 3 Zrotation Yrotation Xrotation
							End Site #name: Head
							{
								OFFSET 0.002365 0.091850 0.046637
							}
						}
					}
					JOINT Spine3_L_Collar
					{
						OFFSET 0.000000 0.000000 0.000000
						CHANNELS 3 Zrotation Yrotation Xrotation
						JOINT L_Collar
						{
							OFFSET 0.072225 0.116603 -0.009480
							CHANNELS 3 Zrotation Yrotation Xrotation
							JOINT L_Shoulder
							{
								OFFSET 0.115937 -0.058643 -0.021018
								CHANNELS 3 Zrotation Yrotation Xrotation
								JOINT L_Elbow
								{
									OFFSET 0.021994 -0.254722 -0.024492
									CHANNELS 3 Zrotation Yrotation Xrotation
									End Site #name: L_Wrist
									{
										OFFSET 0.048810 -0.240214 0.103329
									}
								}
							}
						}
					}
					JOINT Spine3_R_Collar
					{
						OFFSET 0.000000 0.000000 0.000000
						CHANNELS 3 Zrotation Yrotation Xrotation
						JOINT R_Collar
						{
							OFFSET -0.073372 0.120704 -0.024611
							CHANNELS 3 Zrotation Yrotation Xrotation
							JOINT R_Shoulder
							{
								OFFSET -0.108089 -0.054969 -0.020504
								CHANNELS 3 Zrotation Yrotation Xrotation
								JOINT R_Elbow
								{
									OFFSET -0.033684 -0.260739 0.009889
									CHANNELS 3 Zrotation Yrotation Xrotation
									End Site #name: R_Wrist
									{
										OFFSET -0.067980 -0.232763 0.118463
									}
								}
							}
						}
					}
				}
			}
		}
	}
}
MOTION
Frames: 5
Frame Time: 0.041667
0.000000 0.895550 0.000000 4.846855 -5.988592 5.706363 0.000000 0.000000 0.000000 -1.094040 -10.937310 -46.443415 -1.729875 0.321004 33.440471 -2.094385 -6.852088 -0.063440 0.000000 0.000000 0.000000 5.575019 -1.672206 6.254896 -4.766205 5.074813 33.036793 12.420162 19.346910 11.320586 0.000000 0.000000 0.000000 -5.471568 1.222906 1.229475 -0.661563 -0.188529 -6.360679 1.691870 2.726871 4.091652 0.000000 0.000000 0.000000 5.263963 -3.521911 10.089873 0.000000 0.000000 0.000000 20.948414 2.337178 5.728681 -27.218333 2.868236 -0.160673 18.701973 7.862289 1.765985 0.000000 0.000000 0.000000 -26.931883 7.024700 0.272509 30.511914 -1.937990 7.081731 -7.229064 0.953962 -19.800828 
0.001872 0.896806 0.079333 7.486828 -7.247589 4.410793 0.000000 0.000000 0.000000 -4.888332 -11.359217 -43.513834 -3.386486 1.392411 39.555418 0.862317 -4.131914 -3.783456 0.000000 0.000000 0.000000 0.293615 0.321965 -2.081774 3.122489 3.090513 50.154403 14.602331 4.185952 25.415567 0.000000 0.000000 0.000000 -7.730155 1.773640 1.790608 -1.627246 -0.093779 -6.580083 0.939036 1.729531 5.607644 0.000000 0.000000 0.000000 6.109279 -3.833216 8.219324 0.000000 0.000000 0.000000 22.521867 1.420250 5.132268 -26.254040 2.367252 -1.572315 17.574758 7.434037 2.448294 0.000000 0.000000 0.000000 -26.233151 5.839109 1.501703 31.147203 -1.936602 6.830180 -6.014883 0.936372 -16.391871 
-0.003317 0.905296 0.153400 8.583080 -8.404684 2.770163 0.000000 0.000000 0.000000 -8.415570 -10.599381 -37.286750 -2.391538 1.220848 41.116729 3.435267 -4.039942 -8.434367 0.000000 0.000000 0.000000 -2.127892 1.775737 -11.094279 9.207482 -0.078724 62.710229 6.855235 -8.286944 22.971460 0.000000 0.000000 0.000000 -8.064663 1.862866 3.461944 -2.401663 -0.050883 -7.352198 0.164135 0.277159 6.754171 0.000000 0.000000 0.000000 6.191299 -3.731554 7.144858 0.000000 0.000000 0.000000 23.433649 -0.513365 3.469889 -24.721810 2.284490 -1.513852 16.272800 6.923309 2.264608 0.000000 0.000000 0.000000 -24.654640 4.446424 2.736862 29.691828 -1.880781 6.727382 -4.103947 1.951379 -15.278436 
-0.013623 0.919156 0.225980 8.318089 -9.289734 -0.309853 0.000000 0.000000 0.000000 -10.356609 -8.063009 -27.231915 -0.427911 0.376369 37.684445 3.942763 -6.093225 -10.429316 0.000000 0.000000 0.000000 -2.335139 2.734723 -17.116637 12.469490 -2.352234 65.789200 2.021374 -12.144019 16.164354 0.000000 0.000000 0.000000 -6.387228 1.384650 8.615258 -3.882276 -0.065068 -9.907316 -0.223861 -1.379700 7.771552 0.000000 0.000000 0.000000 6.334662 -3.758331 7.240317 0.000000 0.000000 0.000000 23.134903 -2.554284 1.492637 -23.208726 2.658359 0.059184 15.956346 6.658585 -1.839656 0.000000 0.000000 0.000000 -23.965663 3.059500 4.081191 29.390354 -1.941715 6.814223 -3.008082 2.605081 -14.955792 
-0.026253 0.933971 0.293504 6.350626 -9.892036 -2.768593 0.000000 0.000000 0.000000 -9.407118 -4.705903 -16.563937 1.463239 -0.476518 30.836839 2.343643 -8.998393 -8.910479 0.000000 0.000000 0.000000 -0.662190 3.696316 -21.285674 12.896223 -2.542109 60.217708 1.177071 -9.842769 11.137094 0.000000 0.000000 0.000000 -3.004199 0.207195 13.839678 -5.054793 -0.099222 -11.707108 -0.305625 -2.910085 7.314244 0.000000 0.000000 0.000000 6.205966 -3.702643 8.915858 0.000000 0.000000 0.000000 23.641107 -4.023760 0.143433 -22.188979 2.339769 -0.580495 14.624078 6.077955 -1.913794 0.000000 0.000000 0.000000 -24.158094 1.386067 5.774066 30.179703 -2.230023 7.464414 -3.591414 1.993325 -14.208144 
